<svg width="743" height="657" viewBox="0 0 743 657" fill="none" xmlns="http://www.w3.org/2000/svg">
<g clip-path="url(#clip0_18_26)">
<path d="M371.373 656.656C552.691 656.656 699.678 509.669 699.678 328.351C699.678 147.033 552.691 0.046 371.373 0.046C190.055 0.046 43.068 147.033 43.068 328.351C43.068 509.669 190.055 656.656 371.373 656.656Z" fill="white"/>
<path opacity="0.1" d="M371.373 656.656C552.691 656.656 699.678 509.669 699.678 328.351C699.678 147.033 552.691 0.046 371.373 0.046C190.055 0.046 43.068 147.033 43.068 328.351C43.068 509.669 190.055 656.656 371.373 656.656Z" fill="#71EFA3"/>
<path d="M158.006 439.86L1 439.384L1.646 226.094L110.212 226.423L158.505 275.01L158.006 439.86Z" fill="white"/>
<path opacity="0.3" d="M110.212 226.423L110.065 274.863L158.505 275.01L110.212 226.423Z" fill="#71EFA3"/>
<path d="M159.493 274.95C159.487 274.863 159.47 274.776 159.442 274.693C159.431 274.661 159.423 274.63 159.409 274.598C159.362 274.489 159.296 274.39 159.214 274.305L110.921 225.718C110.836 225.634 110.737 225.567 110.628 225.518C110.598 225.505 110.567 225.494 110.535 225.484C110.451 225.455 110.364 225.437 110.275 225.432C110.254 225.432 110.235 225.419 110.214 225.419L1.649 225.094C1.38378 225.094 1.12943 225.199 0.941893 225.387C0.754357 225.574 0.649 225.829 0.649 226.094L0 439.381C0 439.646 0.105357 439.901 0.292893 440.088C0.48043 440.276 0.734784 440.381 1 440.381L158 440.86C158.265 440.86 158.52 440.755 158.707 440.567C158.895 440.38 159 440.125 159 439.86L159.5 275.01C159.505 274.991 159.494 274.972 159.493 274.95ZM111.2 228.841L133.5 251.268L156.094 274L111.068 273.863L111.2 228.841ZM2 438.387L2.64 227.097L109.205 227.42L109.062 274.86C109.062 275.125 109.167 275.38 109.355 275.567C109.542 275.755 109.797 275.86 110.062 275.86L157.502 276.004L157.009 438.854L2 438.387Z" fill="#262626"/>
<path d="M478.084 431.325L263.981 430.676L264.862 139.82L412.909 140.269L478.765 206.525L478.084 431.325Z" fill="white"/>
<path opacity="0.3" d="M412.909 140.269L412.709 206.325L478.765 206.525L412.909 140.269Z" fill="#71EFA3"/>
<path d="M479.753 206.465C479.747 206.378 479.731 206.292 479.703 206.209C479.692 206.176 479.683 206.145 479.669 206.109C479.622 206.001 479.557 205.901 479.475 205.816L413.619 139.56C413.534 139.476 413.435 139.409 413.326 139.36C413.295 139.346 413.265 139.338 413.233 139.327C413.149 139.298 413.062 139.28 412.973 139.274C412.952 139.274 412.933 139.262 412.912 139.262L264.865 138.813C264.6 138.813 264.345 138.918 264.158 139.106C263.97 139.293 263.865 139.548 263.865 139.813L262.984 430.669C262.984 430.934 263.089 431.189 263.277 431.376C263.464 431.564 263.719 431.669 263.984 431.669L478.084 432.318C478.349 432.318 478.604 432.213 478.791 432.025C478.979 431.838 479.084 431.583 479.084 431.318L479.765 206.518C479.765 206.506 479.754 206.487 479.753 206.465ZM413.9 142.686L476.352 205.518L413.71 205.328L413.9 142.686ZM264.984 429.679L265.859 140.823L411.906 141.266L411.706 206.322C411.706 206.587 411.811 206.842 411.999 207.029C412.186 207.217 412.441 207.322 412.706 207.322L477.762 207.522L477.087 430.322L264.984 429.679Z" fill="#262626"/>
<path d="M741.247 439.86L584.241 439.384L584.887 226.094L693.453 226.423L741.746 275.01L741.247 439.86Z" fill="white"/>
<path opacity="0.3" d="M693.453 226.423L693.306 274.863L741.746 275.01L693.453 226.423Z" fill="#71EFA3"/>
<path d="M742.734 274.95C742.729 274.862 742.712 274.776 742.684 274.693C742.673 274.661 742.664 274.63 742.65 274.598C742.603 274.49 742.538 274.39 742.456 274.305L694.162 225.718C694.077 225.634 693.979 225.567 693.87 225.518C693.839 225.504 693.808 225.495 693.776 225.484C693.692 225.455 693.605 225.437 693.517 225.432C693.496 225.432 693.477 225.419 693.456 225.419L584.89 225.09C584.625 225.09 584.37 225.195 584.183 225.383C583.995 225.57 583.89 225.825 583.89 226.09L583.244 439.38C583.244 439.645 583.349 439.9 583.537 440.087C583.724 440.275 583.979 440.38 584.244 440.38L741.25 440.856C741.515 440.856 741.77 440.751 741.957 440.563C742.145 440.376 742.25 440.121 742.25 439.856L742.75 275.006C742.746 274.991 742.735 274.972 742.734 274.95ZM694.445 228.841L716.737 251.268L739.335 274L694.309 273.863L694.445 228.841ZM585.245 438.387L585.885 227.097L692.451 227.42L692.307 274.86C692.307 275.125 692.412 275.38 692.6 275.567C692.787 275.755 693.042 275.86 693.307 275.86L740.747 276.004L740.254 438.854L585.245 438.387Z" fill="#262626"/>
<path d="M317.896 309.318C326.174 309.318 332.884 302.608 332.884 294.33C332.884 286.052 326.174 279.342 317.896 279.342C309.618 279.342 302.908 286.052 302.908 294.33C302.908 302.608 309.618 309.318 317.896 309.318Z" fill="#292A2E"/>
<path d="M420.668 309.318C428.946 309.318 435.656 302.608 435.656 294.33C435.656 286.052 428.946 279.342 420.668 279.342C412.39 279.342 405.68 286.052 405.68 294.33C405.68 302.608 412.39 309.318 420.668 309.318Z" fill="#292A2E"/>
<path d="M389.376 335.78H349.188C348.923 335.78 348.668 335.675 348.481 335.487C348.293 335.3 348.188 335.045 348.188 334.78C348.188 334.515 348.293 334.26 348.481 334.073C348.668 333.885 348.923 333.78 349.188 333.78H389.376C389.641 333.78 389.896 333.885 390.083 334.073C390.271 334.26 390.376 334.515 390.376 334.78C390.376 335.045 390.271 335.3 390.083 335.487C389.896 335.675 389.641 335.78 389.376 335.78Z" fill="#262626"/>
<path d="M302.435 337.203C309.819 337.203 315.805 334.052 315.805 330.166C315.805 326.28 309.819 323.129 302.435 323.129C295.051 323.129 289.065 326.28 289.065 330.166C289.065 334.052 295.051 337.203 302.435 337.203Z" fill="white"/>
<path d="M436.129 337.203C443.513 337.203 449.499 334.052 449.499 330.166C449.499 326.28 443.513 323.129 436.129 323.129C428.745 323.129 422.759 326.28 422.759 330.166C422.759 334.052 428.745 337.203 436.129 337.203Z" fill="white"/>
<g opacity="0.4">
<path opacity="0.4" d="M302.435 337.203C309.819 337.203 315.805 334.052 315.805 330.166C315.805 326.28 309.819 323.129 302.435 323.129C295.051 323.129 289.065 326.28 289.065 330.166C289.065 334.052 295.051 337.203 302.435 337.203Z" fill="#71EFA3"/>
<path opacity="0.4" d="M436.129 337.203C443.513 337.203 449.499 334.052 449.499 330.166C449.499 326.28 443.513 323.129 436.129 323.129C428.745 323.129 422.759 326.28 422.759 330.166C422.759 334.052 428.745 337.203 436.129 337.203Z" fill="#71EFA3"/>
</g>
<path d="M479.087 208.909C453.566 179.608 417.452 161.645 378.688 158.97C339.923 156.295 301.684 169.128 272.381 194.646C223.425 237.283 208.381 308.169 235.804 367.046C241.31 378.844 248.371 389.851 256.797 399.776L258.597 401.909L124.405 544.32C121.951 546.962 120.641 550.468 120.762 554.072C120.882 557.676 122.423 561.087 125.047 563.559C127.672 566.032 131.168 567.367 134.773 567.272C138.378 567.178 141.799 565.662 144.291 563.055L278.45 420.666L280.691 422.344C309.642 444.06 345.606 454.292 381.653 451.07C417.7 447.847 451.279 431.397 475.919 404.89C500.559 378.383 514.516 343.694 515.102 307.508C515.688 271.322 502.86 236.2 479.091 208.909H479.087ZM487.5 313.337C485.423 343.424 472.017 371.606 449.986 392.202C427.955 412.798 398.936 424.277 368.777 424.326C365.992 424.326 363.198 424.226 360.395 424.026C340.818 422.697 321.872 416.558 305.237 406.153C288.601 395.748 274.79 381.398 265.029 364.377C255.267 347.356 249.857 328.189 249.277 308.576C248.698 288.963 252.967 269.51 261.707 251.942C270.446 234.374 283.386 219.234 299.378 207.865C315.37 196.496 333.921 189.248 353.385 186.766C372.849 184.284 392.624 186.642 410.958 193.634C429.292 200.625 445.618 212.032 458.487 226.844C468.797 238.629 476.669 252.341 481.649 267.187C486.629 282.033 488.618 297.718 487.5 313.337V313.337Z" fill="#71EFA3"/>
</g>
<defs>
<clipPath id="clip0_18_26">
<rect width="742.746" height="656.701" fill="white"/>
</clipPath>
</defs>
</svg>
