<svg width="601" height="709" viewBox="0 0 601 709" fill="none" xmlns="http://www.w3.org/2000/svg">
<g clip-path="url(#clip0_18_56)">
<path opacity="0.2" d="M269.886 672.368C418.94 672.368 539.772 551.536 539.772 402.482C539.772 253.428 418.94 132.596 269.886 132.596C120.832 132.596 0 253.428 0 402.482C0 551.536 120.832 672.368 269.886 672.368Z" fill="#71EFA3"/>
<path d="M21.028 628.842C9.48311 603.959 3.49674 576.86 3.48518 549.43C3.47362 521.999 9.43714 494.895 20.961 470.003C32.485 445.11 49.2927 423.027 70.2154 405.288C91.1381 387.549 115.674 374.58 142.116 367.283L158.175 425.339C140.162 430.304 123.447 439.133 109.193 451.213C94.9381 463.293 83.4863 478.333 75.6335 495.287C67.7808 512.242 63.7158 530.703 63.7213 549.388C63.7267 568.072 67.8024 586.531 75.665 603.481L21.028 628.842Z" fill="#71EFA3"/>
<path d="M24.179 708.427C20.8427 708.43 17.5709 707.508 14.726 705.766C11.8811 704.023 9.57423 701.526 8.061 698.553C3.83296 690.25 1.28174 681.195 0.552993 671.906C-0.175751 662.617 0.932255 653.276 3.81375 644.415C9.63319 626.52 22.3232 611.669 39.092 603.13C47.3951 598.902 56.4496 596.351 65.7387 595.622C75.0278 594.893 84.3694 596.001 93.2302 598.883C111.126 604.702 125.976 617.392 134.515 634.161C135.613 636.278 136.281 638.591 136.481 640.967C136.681 643.344 136.408 645.736 135.679 648.006C134.95 650.277 133.779 652.381 132.233 654.196C130.688 656.012 128.798 657.504 126.673 658.586C124.548 659.668 122.23 660.319 119.852 660.501C117.474 660.683 115.084 660.393 112.819 659.647C110.554 658.901 108.459 657.714 106.655 656.154C104.851 654.595 103.373 652.694 102.307 650.561C100.239 646.477 97.3856 642.841 93.9104 639.861C90.4353 636.882 86.4065 634.617 82.0547 633.196C77.703 631.775 73.1137 631.227 68.5498 631.583C63.9859 631.938 59.5369 633.19 55.4575 635.267C51.3782 637.345 47.7486 640.206 44.7767 643.688C41.8048 647.17 39.5488 651.204 38.1379 655.559C36.7271 659.913 36.1891 664.504 36.5548 669.067C36.9205 673.63 38.1826 678.076 40.269 682.151C41.6702 684.905 42.3419 687.973 42.2201 691.061C42.0983 694.149 41.187 697.154 39.5732 699.789C37.9594 702.424 35.6969 704.602 33.0019 706.114C30.3069 707.626 27.2692 708.422 24.179 708.426V708.427Z" fill="#292A2E"/>
<path d="M491.257 400.675C465.873 422.354 435.159 436.861 402.291 442.694L391.686 383.394C420.909 378.127 447.411 362.913 466.695 340.332C485.979 317.752 496.858 289.196 497.486 259.508L557.709 260.764C556.775 309.144 537.229 355.302 503.135 389.639C499.312 393.502 495.352 397.181 491.257 400.675Z" fill="#71EFA3"/>
<path d="M575.022 259.042C564.772 267.75 552.258 273.366 538.939 275.235C525.619 277.104 512.043 275.149 499.792 269.597C487.541 264.046 477.121 255.127 469.744 243.88C462.368 232.633 458.341 219.521 458.131 206.073C458.084 201.298 459.929 196.7 463.263 193.281C466.596 189.862 471.146 187.901 475.921 187.827C480.695 187.753 485.304 189.571 488.742 192.884C492.181 196.197 494.168 200.736 494.27 205.51C494.413 214.741 498.218 223.537 504.847 229.962C511.475 236.388 520.385 239.917 529.616 239.774C538.847 239.631 547.643 235.826 554.068 229.197C560.494 222.569 564.023 213.659 563.88 204.428C563.805 199.636 565.638 195.01 568.974 191.569C572.309 188.128 576.876 186.153 581.668 186.078C586.46 186.003 591.086 187.836 594.527 191.172C597.968 194.507 599.943 199.074 600.018 203.866C600.188 213.186 598.508 222.447 595.075 231.113C591.642 239.78 586.524 247.679 580.018 254.354C578.419 256.005 576.753 257.567 575.022 259.042Z" fill="#292A2E"/>
<path d="M446.125 1.378L429.733 48.916C429.629 49.2189 429.597 49.5422 429.64 49.8596C429.684 50.1771 429.802 50.4799 429.984 50.7435C430.166 51.0072 430.407 51.2243 430.689 51.3774C430.97 51.5306 431.284 51.6154 431.604 51.625L442.663 51.955C442.987 51.9647 443.305 52.0515 443.589 52.2083C443.873 52.365 444.116 52.5872 444.297 52.8565C444.479 53.1257 444.593 53.4343 444.632 53.7566C444.67 54.0789 444.631 54.4057 444.518 54.71L426.275 103.823C426.105 104.283 426.105 104.788 426.276 105.247C426.448 105.706 426.778 106.089 427.207 106.325C427.637 106.561 428.137 106.634 428.616 106.533C429.096 106.431 429.522 106.16 429.819 105.77L472.772 49.158C472.962 48.9072 473.092 48.6158 473.151 48.3065C473.21 47.9973 473.197 47.6785 473.113 47.3752C473.029 47.0718 472.875 46.7921 472.665 46.5577C472.455 46.3233 472.193 46.1407 471.901 46.024L459.036 40.891C458.784 40.7906 458.555 40.6412 458.362 40.4515C458.169 40.2618 458.015 40.0355 457.91 39.7858C457.805 39.5361 457.751 39.2681 457.75 38.9972C457.749 38.7263 457.803 38.4581 457.907 38.208L472.333 3.553C472.46 3.24757 472.511 2.91588 472.482 2.58638C472.452 2.25689 472.343 1.93946 472.164 1.66133C471.985 1.3832 471.741 1.1527 471.454 0.989608C471.166 0.826519 470.843 0.735717 470.512 0.725L448.123 0C447.686 -0.014089 447.257 0.112132 446.897 0.360141C446.538 0.608149 446.267 0.964886 446.125 1.378V1.378Z" fill="#71EFA3"/>
<path d="M27.442 219.55L46.542 256.696C46.6633 256.933 46.7273 257.195 46.7288 257.461C46.7304 257.727 46.6695 257.99 46.551 258.228C46.4325 258.466 46.2598 258.673 46.0467 258.832C45.8335 258.992 45.586 259.099 45.324 259.145L36.271 260.724C36.0055 260.771 35.7549 260.88 35.5399 261.042C35.3249 261.205 35.1516 261.416 35.0344 261.659C34.9172 261.902 34.8594 262.169 34.8657 262.438C34.8721 262.708 34.9425 262.972 35.071 263.209L55.882 301.43C56.0728 301.788 56.1295 302.202 56.042 302.597C55.9544 302.993 55.7283 303.345 55.4044 303.588C55.0805 303.832 54.6802 303.952 54.2756 303.927C53.871 303.901 53.4889 303.732 53.198 303.45L11.186 261.986C11.0004 261.802 10.8597 261.578 10.7748 261.331C10.6899 261.084 10.6631 260.82 10.6964 260.561C10.7298 260.302 10.8225 260.054 10.9672 259.837C11.1119 259.619 11.3049 259.438 11.531 259.307L21.501 253.565C21.6958 253.452 21.8663 253.302 22.0026 253.123C22.1389 252.944 22.2384 252.74 22.2952 252.523C22.3521 252.305 22.3651 252.078 22.3337 251.855C22.3022 251.633 22.2269 251.418 22.112 251.225L6.152 224.439C6.01227 224.203 5.93175 223.936 5.91733 223.663C5.9029 223.389 5.955 223.115 6.06917 222.866C6.18334 222.616 6.35619 222.398 6.57296 222.23C6.78973 222.062 7.04398 221.949 7.314 221.9L25.637 218.657C25.9938 218.594 26.3613 218.647 26.686 218.807C27.0106 218.968 27.2755 219.228 27.442 219.55V219.55Z" fill="#292A2E"/>
<path d="M101.667 370.445L141.6 596.29C146.762 625.485 162.042 651.929 184.758 670.982C207.474 690.034 236.174 700.476 265.822 700.477V700.477C294.727 700.478 322.755 690.552 345.218 672.361C367.681 654.169 383.215 628.816 389.222 600.542L438.106 370.442L101.667 370.445Z" fill="#71EFA3"/>
<path d="M269.886 420.18C362.791 420.18 438.105 397.913 438.105 370.445C438.105 342.977 362.791 320.71 269.886 320.71C176.981 320.71 101.667 342.977 101.667 370.445C101.667 397.913 176.981 420.18 269.886 420.18Z" fill="#292A2E"/>
<path d="M329.741 498.063H211.998C200.845 498.063 191.803 507.105 191.803 518.258V575.218C191.803 586.371 200.845 595.413 211.998 595.413H329.741C340.894 595.413 349.936 586.371 349.936 575.218V518.258C349.936 507.105 340.894 498.063 329.741 498.063Z" fill="#292A2E"/>
<path d="M258.112 548.556H251.112C251.112 539.334 255.29 526.625 275.195 518.449C286.855 513.66 282.995 495.963 282.953 495.785L289.776 494.219C289.998 495.182 295.015 517.876 277.855 524.919C264.754 530.3 258.112 538.256 258.112 548.556Z" fill="#71EFA3"/>
<path d="M320.915 599.507C314.108 586.743 311.267 586.996 299.288 588.06C295.388 588.407 290.536 588.839 284.612 588.839C258.097 588.839 255.338 569.539 255.312 569.345L262.255 568.463L258.783 568.904L262.251 568.43C262.331 568.978 264.451 581.839 284.61 581.839C290.223 581.839 294.71 581.439 298.666 581.088C312.143 579.888 318.466 580.04 327.089 596.213L320.915 599.507Z" fill="#71EFA3"/>
<path d="M240 552.144C239.761 552.144 239.525 552.086 239.313 551.976L231.747 548.076C231.393 547.893 231.127 547.578 231.006 547.199C230.885 546.82 230.92 546.408 231.102 546.054C231.285 545.701 231.601 545.434 231.98 545.314C232.359 545.193 232.77 545.227 233.124 545.41L240.69 549.31C240.99 549.464 241.229 549.714 241.368 550.021C241.508 550.327 241.541 550.672 241.462 550.999C241.382 551.326 241.194 551.617 240.929 551.825C240.664 552.032 240.337 552.145 240 552.144V552.144Z" fill="white"/>
<path d="M230.859 566.989C230.509 566.988 230.171 566.865 229.902 566.64C229.633 566.416 229.452 566.105 229.388 565.761C229.325 565.416 229.384 565.061 229.555 564.756C229.726 564.45 229.998 564.215 230.325 564.089L238.282 561.06C238.648 560.939 239.047 560.965 239.396 561.13C239.744 561.296 240.015 561.59 240.152 561.95C240.29 562.311 240.283 562.71 240.134 563.066C239.984 563.422 239.704 563.706 239.35 563.86L231.393 566.89C231.223 566.955 231.042 566.989 230.859 566.989Z" fill="white"/>
<path d="M278.712 560.824C278.336 560.823 277.974 560.682 277.698 560.427C277.421 560.172 277.25 559.823 277.219 559.448C277.188 559.074 277.299 558.701 277.529 558.404C277.76 558.107 278.093 557.908 278.464 557.845L286.864 556.426C287.255 556.362 287.656 556.455 287.979 556.686C288.301 556.916 288.519 557.265 288.585 557.656C288.652 558.047 288.56 558.448 288.331 558.772C288.102 559.096 287.755 559.316 287.364 559.384L278.964 560.803C278.881 560.817 278.796 560.824 278.712 560.824V560.824Z" fill="white"/>
<path d="M272.569 550.662C272.301 550.662 272.038 550.59 271.807 550.453C271.576 550.317 271.386 550.121 271.256 549.886C271.127 549.651 271.063 549.386 271.071 549.118C271.078 548.85 271.158 548.589 271.301 548.362L275.846 541.162C275.949 540.991 276.085 540.843 276.246 540.725C276.407 540.607 276.59 540.523 276.785 540.477C276.979 540.431 277.18 540.424 277.377 540.457C277.574 540.49 277.762 540.561 277.931 540.668C278.099 540.774 278.245 540.913 278.36 541.077C278.474 541.24 278.555 541.425 278.597 541.62C278.639 541.815 278.642 542.016 278.605 542.212C278.568 542.409 278.493 542.595 278.383 542.762L273.838 549.962C273.703 550.176 273.516 550.353 273.294 550.475C273.072 550.598 272.822 550.662 272.569 550.662Z" fill="white"/>
<path d="M358.192 543.318C343.63 543.318 331.481 539.34 321.985 531.444C304.44 516.854 302.559 494.335 302.485 493.384L309.465 492.859L305.975 493.122L309.464 492.854C309.481 493.054 311.248 513.454 326.512 526.107C336.512 534.392 350.145 537.66 367.058 535.818L367.816 542.777C364.62 543.131 361.407 543.312 358.192 543.318V543.318Z" fill="#71EFA3"/>
<path d="M175.694 586.822L174.401 579.942C201.238 574.896 201.218 563.731 201.195 550.805C201.18 542.099 201.162 532.232 211.418 526.462C230.493 515.731 228.965 491.408 228.948 491.162L235.928 490.637C236.017 491.814 237.859 519.617 214.85 532.561C208.493 536.138 208.179 541.818 208.195 550.79C208.219 564.117 208.248 580.7 175.694 586.822Z" fill="#71EFA3"/>
<path d="M382.558 385.962C382.424 385.962 382.29 385.949 382.158 385.922C374.581 384.398 360.286 377.922 360.414 364.306C360.404 361.637 361.038 359.005 362.263 356.634C363.489 354.263 365.269 352.223 367.452 350.688C365.218 346.547 364.557 341.738 365.591 337.148C368.449 322.257 383.441 319.648 390.973 320.354C391.5 320.405 391.984 320.662 392.322 321.07C392.659 321.477 392.821 322.002 392.772 322.529C392.723 323.055 392.468 323.541 392.062 323.88C391.656 324.219 391.132 324.383 390.605 324.337C389.866 324.269 372.405 322.873 369.519 337.902C368.667 341.529 369.151 345.342 370.883 348.641C378.307 345.059 388.476 345.041 393.144 348.61C394.079 349.25 394.807 350.149 395.239 351.198C395.67 352.246 395.786 353.397 395.573 354.51C394.639 359.38 388.923 361.81 381.685 360.42C377.128 359.589 372.96 357.314 369.794 353.933C368.118 355.101 366.753 356.659 365.815 358.473C364.878 360.287 364.397 362.303 364.414 364.345C364.285 378.045 382.763 381.964 382.949 382.002C383.436 382.1 383.869 382.375 384.164 382.774C384.459 383.173 384.595 383.667 384.546 384.161C384.497 384.655 384.266 385.113 383.898 385.446C383.53 385.779 383.051 385.963 382.555 385.963L382.558 385.962ZM373.4 351.89C375.923 354.243 379.058 355.837 382.445 356.49C387.216 357.403 391.176 356.229 391.651 353.754C391.723 353.37 391.671 352.972 391.504 352.619C391.336 352.266 391.062 351.974 390.719 351.786C387.7 349.476 379.83 349.1 373.4 351.89Z" fill="white"/>
<path d="M211.61 370.94C211.19 370.94 210.781 370.808 210.441 370.562C210.1 370.317 209.845 369.971 209.713 369.572C209.58 369.174 209.576 368.744 209.701 368.344C209.826 367.943 210.074 367.592 210.41 367.34C210.841 367.015 220.91 359.252 215.185 349.833C213.957 347.635 212.031 345.911 209.711 344.933C207.211 350.633 201.558 355.633 197.118 356.006C196.182 356.13 195.231 355.979 194.38 355.571C193.529 355.162 192.816 354.514 192.328 353.706C191.78 352.754 191.503 351.671 191.525 350.572C191.547 349.474 191.868 348.403 192.454 347.474C194.683 343.403 200.227 340.36 205.634 340.238C206.084 340.23 206.534 340.238 206.974 340.267C207.225 338.908 207.156 337.509 206.772 336.181C206.389 334.853 205.701 333.633 204.764 332.617C198.186 325.21 186.308 332.152 186.19 332.223C185.964 332.357 185.714 332.446 185.454 332.484C185.195 332.522 184.93 332.508 184.675 332.443C184.42 332.379 184.181 332.265 183.97 332.108C183.76 331.951 183.582 331.754 183.448 331.528C183.314 331.302 183.225 331.052 183.187 330.792C183.149 330.533 183.163 330.268 183.228 330.013C183.292 329.758 183.406 329.519 183.563 329.309C183.72 329.098 183.917 328.92 184.143 328.786C184.743 328.427 199.007 320.109 207.754 329.96C209.11 331.443 210.101 333.222 210.646 335.156C211.191 337.09 211.276 339.125 210.894 341.098C214.147 342.371 216.867 344.719 218.603 347.75C224.703 357.778 217.479 367.038 212.81 370.534C212.465 370.797 212.044 370.939 211.61 370.94V370.94ZM205.61 344.247C201.257 344.387 197.294 346.965 195.959 349.402C195.725 349.72 195.581 350.096 195.543 350.489C195.505 350.883 195.575 351.279 195.744 351.636C195.844 351.805 196.02 352.08 196.786 352.024C199.293 351.816 203.41 348.484 205.608 344.247H205.61Z" fill="white"/>
<path d="M430.612 204.417C440.851 276.817 372.912 321.963 283.027 334.673C193.142 347.383 115.352 322.848 105.114 250.443C94.876 178.038 156.067 85.182 245.951 72.472C335.835 59.762 420.374 132.012 430.612 204.417Z" fill="#71EFA3"/>
<path d="M344.385 126.993L251.81 140.082C222.793 144.185 202.595 171.035 206.698 200.053C210.801 229.07 237.651 249.268 266.669 245.165L359.243 232.075C388.261 227.972 408.458 201.123 404.355 172.105C400.252 143.087 373.402 122.89 344.385 126.993Z" fill="white"/>
<path d="M237.989 16.4428L230.811 17.8186L244.674 90.151L251.853 88.7752L237.989 16.4428Z" fill="#71EFA3"/>
<path d="M235.426 35.839C242.803 35.839 248.784 29.8584 248.784 22.481C248.784 15.1036 242.803 9.123 235.426 9.123C228.049 9.123 222.068 15.1036 222.068 22.481C222.068 29.8584 228.049 35.839 235.426 35.839Z" fill="#292A2E"/>
<path d="M285.566 212.173C284.267 212.173 283.003 211.75 281.966 210.967L242.655 181.4C242.014 180.931 241.473 180.339 241.062 179.658C240.652 178.978 240.381 178.223 240.265 177.437C240.148 176.652 240.189 175.85 240.385 175.081C240.581 174.311 240.928 173.587 241.405 172.952C241.883 172.318 242.481 171.784 243.167 171.382C243.852 170.981 244.611 170.719 245.398 170.613C246.185 170.507 246.986 170.558 247.753 170.764C248.52 170.969 249.239 171.325 249.868 171.811L289.177 201.38C290.185 202.136 290.93 203.191 291.305 204.394C291.68 205.597 291.667 206.887 291.267 208.083C290.868 209.278 290.102 210.317 289.079 211.052C288.055 211.788 286.826 212.182 285.566 212.18V212.173Z" fill="#292A2E"/>
<path d="M251.125 217.042C250.01 217.041 248.918 216.73 247.97 216.143C247.023 215.556 246.257 214.717 245.76 213.719C245.263 212.722 245.053 211.605 245.155 210.495C245.256 209.385 245.665 208.326 246.335 207.435L275.906 168.125C276.868 166.868 278.287 166.041 279.856 165.826C281.424 165.611 283.014 166.024 284.279 166.976C285.544 167.927 286.381 169.34 286.609 170.907C286.837 172.473 286.436 174.066 285.495 175.339L255.925 214.649C255.366 215.393 254.641 215.997 253.808 216.413C252.974 216.828 252.056 217.043 251.125 217.042Z" fill="#292A2E"/>
<path d="M370.933 200.1C369.634 200.1 368.37 199.677 367.333 198.894L328.024 169.324C327.389 168.852 326.854 168.26 326.449 167.58C326.045 166.901 325.778 166.149 325.665 165.366C325.552 164.583 325.595 163.786 325.791 163.02C325.987 162.254 326.333 161.534 326.809 160.902C327.284 160.27 327.879 159.738 328.561 159.337C329.242 158.936 329.997 158.674 330.78 158.566C331.563 158.457 332.36 158.504 333.125 158.705C333.89 158.905 334.608 159.255 335.237 159.734L374.546 189.304C375.554 190.06 376.299 191.115 376.674 192.318C377.049 193.521 377.036 194.811 376.636 196.007C376.237 197.202 375.471 198.241 374.448 198.976C373.424 199.712 372.195 200.106 370.935 200.104L370.933 200.1Z" fill="#292A2E"/>
<path d="M336.494 204.971C335.379 204.97 334.287 204.659 333.339 204.072C332.391 203.485 331.626 202.646 331.128 201.649C330.631 200.651 330.421 199.535 330.523 198.425C330.624 197.315 331.033 196.255 331.703 195.364L361.273 156.054C362.23 154.782 363.652 153.943 365.228 153.72C366.804 153.497 368.403 153.909 369.675 154.866C370.947 155.823 371.786 157.245 372.009 158.821C372.232 160.397 371.82 161.996 370.863 163.268L341.293 202.578C340.734 203.322 340.009 203.926 339.176 204.342C338.343 204.757 337.425 204.972 336.494 204.971V204.971Z" fill="#292A2E"/>
<path d="M313.838 261.577C315.644 259.186 318.092 257.358 320.897 256.305C323.702 255.252 326.748 255.018 329.681 255.63C332.614 256.242 335.313 257.675 337.463 259.762C339.613 261.849 341.125 264.504 341.824 267.417C341.951 267.932 341.975 268.468 341.894 268.993C341.814 269.517 341.63 270.021 341.354 270.474C341.078 270.928 340.715 271.322 340.286 271.635C339.856 271.947 339.37 272.172 338.854 272.296C338.337 272.419 337.802 272.44 337.277 272.356C336.753 272.272 336.251 272.085 335.799 271.806C335.348 271.527 334.956 271.161 334.646 270.73C334.336 270.299 334.114 269.811 333.994 269.294C333.757 268.304 333.326 267.37 332.728 266.546C332.13 265.722 331.375 265.024 330.507 264.492C329.639 263.959 328.674 263.603 327.669 263.444C326.663 263.284 325.636 263.324 324.646 263.561C323.655 263.799 322.721 264.229 321.897 264.827C321.073 265.426 320.375 266.18 319.843 267.049C319.311 267.917 318.955 268.881 318.795 269.887C318.636 270.892 318.676 271.92 318.913 272.91C319.154 273.946 318.976 275.034 318.417 275.939C317.858 276.844 316.964 277.491 315.93 277.738C314.896 277.986 313.806 277.815 312.898 277.262C311.99 276.709 311.338 275.819 311.083 274.787C310.594 272.769 310.51 270.674 310.836 268.623C311.162 266.572 311.892 264.606 312.983 262.839C313.248 262.403 313.533 261.982 313.838 261.577Z" fill="#292A2E"/>
</g>
<defs>
<clipPath id="clip0_18_56">
<rect width="600.027" height="708.427" fill="white"/>
</clipPath>
</defs>
</svg>
