<?xml version="1.0" standalone="no"?>
<!DOCTYPE svg PUBLIC "-//W3C//DTD SVG 20010904//EN"
 "http://www.w3.org/TR/2001/REC-SVG-20010904/DTD/svg10.dtd">
<svg version="1.0" xmlns="http://www.w3.org/2000/svg"
 width="560.000000pt" height="560.000000pt" viewBox="0 0 560.000000 560.000000"
 preserveAspectRatio="xMidYMid meet">
<metadata>
Created by potrace 1.14, written by Peter Selinger 2001-2017
</metadata>
<g transform="translate(0.000000,560.000000) scale(0.100000,-0.100000)"
fill="#000000" stroke="none">
<path d="M3600 5209 c-293 -147 -403 -804 -203 -1226 35 -75 107 -169 153
-201 27 -18 39 -35 40 -51 l0 -23 -37 28 c-21 15 -40 31 -43 35 -3 3 -42 32
-88 63 -206 140 -413 209 -627 210 -158 0 -272 -23 -432 -90 -83 -34 -285
-149 -291 -166 -2 -4 -8 -8 -13 -8 -5 0 -17 -6 -26 -14 -106 -87 -181 -146
-184 -146 -2 0 -6 26 -7 58 -2 31 -5 73 -7 92 -2 30 11 54 98 182 l100 148 1
541 c1 297 -2 545 -5 551 -3 5 -26 8 -50 6 l-44 -3 -2 -470 c0 -258 -2 -473
-2 -477 -1 -5 -36 -8 -79 -8 l-78 0 0 478 0 477 -60 0 -59 0 0 -478 0 -477
-91 0 -90 0 0 478 0 477 -50 0 -49 0 -1 -535 -1 -535 60 -95 c33 -52 82 -128
109 -169 l49 -75 -6 -85 c-4 -46 -8 -96 -10 -110 -4 -33 -17 -183 -20 -236 -4
-69 -17 -248 -20 -300 -23 -298 -22 -778 1 -996 l6 -55 -128 -49 c-303 -113
-386 -135 -488 -130 -119 7 -261 83 -412 222 -73 67 -125 231 -129 410 -11
429 230 667 708 699 51 3 94 8 96 10 2 2 5 74 5 160 l1 156 -105 -6 c-162 -10
-279 -31 -393 -72 -325 -115 -523 -332 -609 -667 -32 -125 -31 -402 2 -530 42
-161 106 -290 180 -365 210 -213 434 -329 642 -335 51 -1 95 -5 98 -9 3 -3 5
-277 4 -607 0 -428 3 -601 10 -598 6 3 76 47 156 100 227 148 406 233 630 301
81 24 236 63 290 72 14 3 61 11 105 19 44 8 100 17 125 19 84 8 175 17 225 21
65 6 448 6 500 0 22 -2 69 -7 105 -10 133 -13 146 -15 185 -20 46 -7 79 -13
115 -20 14 -3 41 -8 60 -11 283 -50 568 -151 839 -298 96 -53 177 -93 181 -91
4 3 6 16 5 29 -2 14 -6 111 -10 218 -3 106 -8 230 -10 276 -3 45 -7 153 -10
240 -2 86 -7 214 -10 283 l-6 126 128 6 c202 9 369 59 517 156 215 139 344
346 379 605 37 266 -25 516 -178 716 -196 255 -533 424 -921 459 -156 14 -372
6 -508 -20 -27 -5 -51 -7 -53 -5 -14 13 -27 296 -14 296 23 0 129 121 163 186
40 75 83 196 92 258 4 21 8 42 11 46 8 12 18 147 18 230 0 276 -80 523 -212
658 -66 68 -120 95 -198 98 -52 3 -71 -2 -123 -27z m-639 -1508 c93 -24 219
-85 314 -153 39 -28 162 -137 214 -189 l62 -63 -7 -96 c-11 -168 -12 -182 -20
-375 -28 -728 30 -1114 172 -1141 69 -13 127 39 165 149 7 20 18 37 25 37 6 0
43 -16 81 -35 54 -27 86 -53 140 -113 l70 -77 3 -90 c1 -50 3 -119 5 -155 2
-36 6 -148 10 -250 3 -102 7 -200 9 -217 1 -18 2 -33 2 -33 -1 0 -65 23 -144
50 -132 46 -412 120 -507 134 -22 4 -65 11 -95 16 -50 9 -78 12 -180 25 -19 2
-71 7 -115 11 -44 3 -96 8 -115 10 -50 5 -446 5 -505 -1 -27 -2 -81 -7 -120
-10 -107 -9 -231 -26 -363 -50 -194 -34 -462 -115 -633 -189 l-95 -42 0 364 1
365 155 58 c142 54 157 58 191 47 51 -15 84 -4 127 42 32 34 51 43 142 69 149
43 255 66 426 95 153 26 185 30 314 42 41 3 91 8 110 10 19 1 118 6 220 9 102
4 187 9 189 11 3 2 5 73 5 157 l0 152 -149 -1 c-148 0 -356 -10 -405 -19 -14
-2 -52 -6 -85 -9 -171 -16 -567 -90 -645 -121 -14 -5 -16 25 -16 247 0 260 -4
367 -29 735 l-6 92 69 68 c184 180 348 303 499 374 76 36 193 73 253 81 61 8
191 -2 261 -21z m1486 -535 c10 -3 38 -8 62 -11 75 -11 210 -54 295 -94 261
-125 408 -340 408 -596 0 -55 -5 -121 -11 -147 -51 -220 -194 -363 -425 -426
-76 -20 -291 -23 -354 -4 -44 13 -54 21 -107 83 -69 81 -217 171 -342 208
l-56 17 -2 259 c-2 143 -6 292 -9 330 -3 39 -8 115 -11 170 -3 55 -8 119 -11
143 -2 23 -1 42 3 42 5 1 28 5 53 10 25 5 81 12 125 16 44 3 81 8 83 9 6 5
280 -3 299 -9z"/>
</g>
</svg>
